<?xml version="1.0" encoding="UTF-8" standalone="no"?>
<!-- Created with Inkscape (http://www.inkscape.org/) -->

<svg
   width="30mm"
   height="10mm"
   viewBox="0 0 30 10"
   version="1.1"
   id="svg5"
   sodipodi:docname="logo.svg"
   inkscape:version="1.1.1 (c3084ef, 2021-09-22)"
   xmlns:inkscape="http://www.inkscape.org/namespaces/inkscape"
   xmlns:sodipodi="http://sodipodi.sourceforge.net/DTD/sodipodi-0.dtd"
   xmlns="http://www.w3.org/2000/svg"
   xmlns:svg="http://www.w3.org/2000/svg">
  <sodipodi:namedview
     id="namedview7"
     pagecolor="#ffffff"
     bordercolor="#666666"
     borderopacity="1.0"
     inkscape:pageshadow="2"
     inkscape:pageopacity="0.0"
     inkscape:pagecheckerboard="true"
     inkscape:document-units="mm"
     showgrid="false"
     inkscape:zoom="4.8039825"
     inkscape:cx="149.35525"
     inkscape:cy="59.429858"
     inkscape:window-width="2560"
     inkscape:window-height="1387"
     inkscape:window-x="336"
     inkscape:window-y="25"
     inkscape:window-maximized="1"
     inkscape:current-layer="g19"
     width="50mm" />
  <defs
     id="defs2" />
  <g
     inkscape:label="[fixed] BG"
     inkscape:groupmode="layer"
     id="g17"
     style="display:inline"
     sodipodi:insensitive="true" />
  <g
     inkscape:label="F.Cu"
     inkscape:groupmode="layer"
     id="g19"
     style="display:inline">
    <g
       id="g7945"
       style="display:inline"
       transform="matrix(0.34999999,0,0,0.34999999,-3.5920947,-11.247639)">
      <path
         style="fill:#0366ab;fill-opacity:1;stroke:none;stroke-width:0.366657px;stroke-linecap:butt;stroke-linejoin:miter;stroke-opacity:1"
         d="m 25.755276,44.34314 6.928956,-6.928956 v 4.157373 c -1.385791,1.385792 -5.543165,5.543166 -6.928956,6.928957 z"
         id="path26-4" />
      <path
         style="fill:#0366ab;fill-opacity:1;stroke:none;stroke-width:0.366657px;stroke-linecap:butt;stroke-linejoin:miter;stroke-opacity:1"
         d="m 25.755276,51.272097 c 1.385791,-1.385792 5.543165,-5.543166 6.928956,-6.928957 v 4.157374 l -6.928956,6.928956 z"
         id="path28-8" />
    </g>
  </g>
  <g
     inkscape:label="F.Mask"
     inkscape:groupmode="layer"
     id="g21"
     style="display:inline">
    <g
       id="g7958"
       style="display:inline"
       transform="matrix(0.34999999,0,0,0.34999999,-3.5920947,-11.247639)">
      <path
         style="fill:#0366ab;fill-opacity:1;stroke:none;stroke-width:0.366657px;stroke-linecap:butt;stroke-linejoin:miter;stroke-opacity:1"
         d="m 25.755276,44.34314 6.928956,-6.928956 v 4.157373 c -1.385791,1.385792 -5.543165,5.543166 -6.928956,6.928957 z"
         id="path7954" />
      <path
         style="fill:#0366ab;fill-opacity:1;stroke:none;stroke-width:0.366657px;stroke-linecap:butt;stroke-linejoin:miter;stroke-opacity:1"
         d="m 25.755276,51.272097 c 1.385791,-1.385792 5.543165,-5.543166 6.928956,-6.928957 v 4.157374 l -6.928956,6.928956 z"
         id="path7956" />
    </g>
  </g>
  <g
     inkscape:label="F.SilkS"
     inkscape:groupmode="layer"
     id="g23"
     style="display:inline">
    <path
       style="display:inline;fill:#011727;fill-opacity:1;stroke:none;stroke-width:0.12833px;stroke-linecap:butt;stroke-linejoin:miter;stroke-opacity:1"
       d="M 4.9372244,4.2724596 2.5120898,1.847325 v 6.3053503 h 0.970054 V 4.2724596 l 1.4550806,1.4550811 z"
       id="path30-3" />
    <g
       transform="matrix(0.35,0,0,0.35,2.1647648,-92.467716)"
       id="text4534"
       style="font-style:normal;font-variant:normal;font-weight:normal;font-stretch:normal;font-size:7.05556px;line-height:1.25;font-family:'Bebas Kai';-inkscape-font-specification:'Bebas Kai, Normal';font-variant-ligatures:normal;font-variant-caps:normal;font-variant-numeric:normal;font-feature-settings:normal;text-align:start;letter-spacing:1.39435px;word-spacing:0px;writing-mode:lr-tb;text-anchor:start;fill:#000000;fill-opacity:1;stroke:none;stroke-width:0.264583"
       aria-label="STEFAN MISIK">
      <path
         id="path3744"
         style="font-style:normal;font-variant:normal;font-weight:normal;font-stretch:normal;font-size:8.46667px;line-height:0;font-family:'Bebas Kai';-inkscape-font-specification:'Bebas Kai, Normal';font-variant-ligatures:normal;font-variant-caps:normal;font-variant-numeric:normal;font-feature-settings:normal;text-align:start;letter-spacing:1.39435px;writing-mode:lr-tb;text-anchor:start;stroke-width:0.264583"
         d="m 22.414383,275.43117 c -0.855134,0 -1.337734,0.4826 -1.337734,1.32927 v 0.127 c 0,0.69427 0.2794,1.18533 1.100667,1.8796 0.601133,0.508 0.778933,0.80433 0.778933,1.17686 v 0.19474 c 0,0.37253 -0.169333,0.5588 -0.508,0.5588 -0.338666,0 -0.508,-0.18627 -0.508,-0.5588 v -0.42334 l -0.8636,0.0847 v 0.39793 c 0,0.84667 0.499534,1.32927 1.388534,1.32927 0.889,0 1.388533,-0.4826 1.388533,-1.32927 v -0.29633 c 0,-0.7112 -0.3048,-1.20226 -1.126067,-1.89653 -0.601133,-0.508 -0.753533,-0.80433 -0.753533,-1.15147 v -0.0762 c 0,-0.33866 0.160867,-0.51646 0.4572,-0.51646 0.296333,0 0.4572,0.1778 0.4572,0.51646 v 0.22014 l 0.8636,-0.0847 v -0.1524 c 0,-0.84667 -0.4826,-1.32927 -1.337733,-1.32927 z" />
      <path
         id="path3746"
         style="font-style:normal;font-variant:normal;font-weight:normal;font-stretch:normal;font-size:8.46667px;line-height:0;font-family:'Bebas Kai';-inkscape-font-specification:'Bebas Kai, Normal';font-variant-ligatures:normal;font-variant-caps:normal;font-variant-numeric:normal;font-feature-settings:normal;text-align:start;letter-spacing:1.39435px;writing-mode:lr-tb;text-anchor:start;stroke-width:0.264583"
         d="m 28.181505,276.36251 v -0.84667 h -2.810933 v 0.84667 h 0.956733 v 5.07999 h 0.897467 v -5.07999 z" />
      <path
         id="path3748"
         style="font-style:normal;font-variant:normal;font-weight:normal;font-stretch:normal;font-size:8.46667px;line-height:0;font-family:'Bebas Kai';-inkscape-font-specification:'Bebas Kai, Normal';font-variant-ligatures:normal;font-variant-caps:normal;font-variant-numeric:normal;font-feature-settings:normal;text-align:start;letter-spacing:1.39435px;writing-mode:lr-tb;text-anchor:start;stroke-width:0.264583"
         d="m 32.662489,276.34557 v -0.82973 h -2.523067 v 5.92666 h 2.523067 v -0.82973 h -1.6256 v -1.76106 h 1.312333 v -0.82974 h -1.312333 v -1.6764 z" />
      <path
         id="path3750"
         style="font-style:normal;font-variant:normal;font-weight:normal;font-stretch:normal;font-size:8.46667px;line-height:0;font-family:'Bebas Kai';-inkscape-font-specification:'Bebas Kai, Normal';font-variant-ligatures:normal;font-variant-caps:normal;font-variant-numeric:normal;font-feature-settings:normal;text-align:start;letter-spacing:1.39435px;writing-mode:lr-tb;text-anchor:start;stroke-width:0.264583"
         d="m 37.305265,276.34557 v -0.82973 h -2.480734 v 5.92666 h 0.897467 v -2.59079 h 1.27 v -0.82974 h -1.27 v -1.6764 z" />
      <path
         id="path3752"
         style="font-style:normal;font-variant:normal;font-weight:normal;font-stretch:normal;font-size:8.46667px;line-height:0;font-family:'Bebas Kai';-inkscape-font-specification:'Bebas Kai, Normal';font-variant-ligatures:normal;font-variant-caps:normal;font-variant-numeric:normal;font-feature-settings:normal;text-align:start;letter-spacing:1.39435px;writing-mode:lr-tb;text-anchor:start;stroke-width:0.264583"
         d="m 41.900283,281.4425 -1.024466,-5.92666 h -1.143 l -1.024467,5.92666 h 0.897467 l 0.194733,-1.3462 h 0.9906 l 0.194733,1.3462 z m -1.617133,-4.65666 h 0.0254 l 0.364067,2.49766 h -0.753534 z" />
      <path
         id="path3754"
         style="font-style:normal;font-variant:normal;font-weight:normal;font-stretch:normal;font-size:8.46667px;line-height:0;font-family:'Bebas Kai';-inkscape-font-specification:'Bebas Kai, Normal';font-variant-ligatures:normal;font-variant-caps:normal;font-variant-numeric:normal;font-feature-settings:normal;text-align:start;letter-spacing:1.39435px;writing-mode:lr-tb;text-anchor:start;stroke-width:0.264583"
         d="m 46.851167,281.4425 v -5.92666 H 46.0045 v 3.5306 h -0.01693 l -1.058333,-3.5306 H 43.93017 v 5.92666 h 0.846667 v -3.92853 h 0.01693 l 1.176867,3.92853 z" />
      <path
         id="path3756"
         style="font-style:normal;font-variant:normal;font-weight:normal;font-stretch:normal;font-size:8.46667px;line-height:0;font-family:'Bebas Kai';-inkscape-font-specification:'Bebas Kai, Normal';font-variant-ligatures:normal;font-variant-caps:normal;font-variant-numeric:normal;font-feature-settings:normal;text-align:start;letter-spacing:1.39435px;writing-mode:lr-tb;text-anchor:start;stroke-width:0.264583"
         d="m 56.010513,281.4425 v -5.92666 h -1.210734 l -0.694266,3.18347 h -0.01693 l -0.702733,-3.18347 h -1.176867 v 5.92666 h 0.846667 v -4.11479 h 0.01693 l 0.745067,3.26813 h 0.5334 l 0.745067,-3.26813 h 0.01693 v 4.11479 z" />
      <path
         id="path3758"
         style="font-style:normal;font-variant:normal;font-weight:normal;font-stretch:normal;font-size:8.46667px;line-height:0;font-family:'Bebas Kai';-inkscape-font-specification:'Bebas Kai, Normal';font-variant-ligatures:normal;font-variant-caps:normal;font-variant-numeric:normal;font-feature-settings:normal;text-align:start;letter-spacing:1.39435px;writing-mode:lr-tb;text-anchor:start;stroke-width:0.264583"
         d="m 59.263299,281.4425 v -5.92666 h -0.897467 v 5.92666 z" />
      <path
         id="path3760"
         style="font-style:normal;font-variant:normal;font-weight:normal;font-stretch:normal;font-size:8.46667px;line-height:0;font-family:'Bebas Kai';-inkscape-font-specification:'Bebas Kai, Normal';font-variant-ligatures:normal;font-variant-caps:normal;font-variant-numeric:normal;font-feature-settings:normal;text-align:start;letter-spacing:1.39435px;writing-mode:lr-tb;text-anchor:start;stroke-width:0.264583"
         d="m 62.678672,275.43117 c -0.855133,0 -1.337733,0.4826 -1.337733,1.32927 v 0.127 c 0,0.69427 0.2794,1.18533 1.100667,1.8796 0.601133,0.508 0.778933,0.80433 0.778933,1.17686 v 0.19474 c 0,0.37253 -0.169333,0.5588 -0.508,0.5588 -0.338666,0 -0.508,-0.18627 -0.508,-0.5588 v -0.42334 l -0.8636,0.0847 v 0.39793 c 0,0.84667 0.499534,1.32927 1.388533,1.32927 0.889,0 1.388534,-0.4826 1.388534,-1.32927 v -0.29633 c 0,-0.7112 -0.3048,-1.20226 -1.126067,-1.89653 -0.601133,-0.508 -0.753533,-0.80433 -0.753533,-1.15147 v -0.0762 c 0,-0.33866 0.160867,-0.51646 0.4572,-0.51646 0.296333,0 0.4572,0.1778 0.4572,0.51646 v 0.22014 l 0.8636,-0.0847 v -0.1524 c 0,-0.84667 -0.4826,-1.32927 -1.337734,-1.32927 z" />
      <path
         id="path3762"
         style="font-style:normal;font-variant:normal;font-weight:normal;font-stretch:normal;font-size:8.46667px;line-height:0;font-family:'Bebas Kai';-inkscape-font-specification:'Bebas Kai, Normal';font-variant-ligatures:normal;font-variant-caps:normal;font-variant-numeric:normal;font-feature-settings:normal;text-align:start;letter-spacing:1.39435px;writing-mode:lr-tb;text-anchor:start;stroke-width:0.264583"
         d="m 66.946797,281.4425 v -5.92666 H 66.04933 v 5.92666 z" />
      <path
         id="path3764"
         style="font-style:normal;font-variant:normal;font-weight:normal;font-stretch:normal;font-size:8.46667px;line-height:0;font-family:'Bebas Kai';-inkscape-font-specification:'Bebas Kai, Normal';font-variant-ligatures:normal;font-variant-caps:normal;font-variant-numeric:normal;font-feature-settings:normal;text-align:start;letter-spacing:1.39435px;writing-mode:lr-tb;text-anchor:start;stroke-width:0.264583"
         d="m 71.107241,277.86957 1.2192,-2.35373 h -0.9398 l -1.2446,2.47227 h -0.01693 v -2.47227 h -0.897467 v 5.92666 h 0.897467 v -1.8288 l 0.389467,-0.76199 0.880533,2.59079 h 0.956733 z" />
    </g>
    <text
       xml:space="preserve"
       style="font-style:normal;font-weight:normal;font-size:1.23472px;line-height:1.25;font-family:sans-serif;fill:#000000;fill-opacity:1;stroke:none;stroke-width:0.092604"
       x="9.4210138"
       y="3.2007687"
       id="text1282"><tspan
         sodipodi:role="line"
         id="tspan1280"
         style="font-size:1.23472px;stroke-width:0.092604"
         x="9.4210138"
         y="3.2007687">Designed by</tspan></text>
    <text
       xml:space="preserve"
       style="font-style:normal;font-weight:normal;font-size:1.48167px;line-height:1.25;font-family:sans-serif;fill:#000000;fill-opacity:1;stroke:none;stroke-width:0.092604"
       x="10.385488"
       y="7.7261181"
       id="text5824"><tspan
         sodipodi:role="line"
         id="tspan5822"
         style="font-size:1.48167px;stroke-width:0.092604"
         x="10.385488"
         y="7.7261181">www.stefanmisik.com</tspan></text>
  </g>
</svg>
